<svg xmlns="http://www.w3.org/2000/svg" width="24" height="24" viewBox="0 0 12 12" shape-rendering="crispEdges">
  <g fill="#007acc">
    <rect x="2" y="0" width="2" height="2"/>
    <rect x="2" y="2" width="2" height="2"/>
    <rect x="4" y="2" width="2" height="2"/>
    <rect x="0" y="4" width="2" height="2"/>
    <rect x="2" y="4" width="2" height="2"/>
    <rect x="4" y="4" width="2" height="2"/>
    <rect x="6" y="4" width="2" height="2"/>
    <rect x="0" y="6" width="2" height="2"/>
    <rect x="2" y="6" width="2" height="2"/>
    <rect x="4" y="6" width="2" height="2"/>
    <rect x="6" y="6" width="2" height="2"/>
    <rect x="2" y="8" width="2" height="2"/>
    <rect x="4" y="8" width="2" height="2"/>
    <rect x="6" y="8" width="2" height="2"/>
    <rect x="4" y="10" width="2" height="2"/>
  </g>
</svg>
